<svg xmlns="http://www.w3.org/2000/svg" viewBox="0 0 416.83 416.8"><defs><style>.cls-1{fill:#ccc;}</style></defs><title>Recurso 46</title><g id="Capa_2" data-name="Capa 2"><g id="Capa_1-2" data-name="Capa 1"><path class="cls-1" d="M377.64,188.47q-39.19-39.16-94.58-39.16a149.41,149.41,0,0,0-15.55.81V133.74q0-55.38-39.15-94.53a141.73,141.73,0,0,0-20.63-17.16L205,20.24a105.06,105.06,0,0,0-9.25-5.4,18.38,18.38,0,0,0-2-1,120.55,120.55,0,0,0-17.69-7.33c-2-.67-4.08-1.28-6.15-1.84h0c-2.07-.56-4.16-1.06-6.29-1.54l-3.16-.64C158.31,2,156.13,1.7,154,1.4s-4.39-.56-6.62-.79C146.27.53,145.15.42,144,.36c-2.23-.16-4.5-.28-6.79-.3-1.12,0-2.29-.06-3.44-.06Q78.34,0,39.19,39.19T0,133.77q0,55.38,39.21,94.59t94.53,39.15h16.38a149.36,149.36,0,0,0-.81,15.54q0,55.4,39.19,94.59t94.56,39.16q55.38,0,94.58-39.16t39.19-94.59Q416.79,227.67,377.64,188.47Zm-189.81-.64q-22.35,22.35-54.06,22.36T79.69,187.86q-22.39-22.4-22.34-54.12T79.69,79.69q22.38-22.35,54.08-22.36t54.09,22.36a83.68,83.68,0,0,1,9.78,11.76c1.37,2.07,2.65,4.17,3.83,6.32a72.8,72.8,0,0,1,5.59,13.5c.7,2.38,1.28,4.78,1.76,7.21s.81,4.92,1,7.49.34,5.15.34,7.77Q210.19,165.48,187.83,187.83ZM337.11,337.11q-22.42,22.39-54.05,22.42t-54-22.42q-22.44-22.42-22.45-54.06A80.48,80.48,0,0,1,208,267.51q4.28-21.8,21-38.48t38.48-21a80.51,80.51,0,0,1,15.55-1.46q31.6,0,54.05,22.45t22.42,54Q359.53,314.67,337.11,337.11Z"/></g></g></svg>